<svg version="1.1" id="Layer_1" xmlns="http://www.w3.org/2000/svg" xmlns:xlink="http://www.w3.org/1999/xlink" x="0px" y="0px"
	 width="100%" viewBox="0 0 1890 1417" enable-background="new 0 0 1890 1417" xml:space="preserve">
<path fill="#000000" opacity="1.000000" stroke="none" 
	d="
M1159.000000,1418.000000 
	C772.666809,1418.000000 386.833557,1418.000000 1.000259,1418.000000 
	C1.000173,945.666931 1.000173,473.333832 1.000086,1.000576 
	C630.999573,1.000384 1260.999146,1.000384 1890.999023,1.000192 
	C1890.999268,473.332764 1890.999268,945.665527 1890.999634,1417.999146 
	C1647.166626,1418.000000 1403.333374,1418.000000 1159.000000,1418.000000 
M1621.329590,1379.137695 
	C1632.365845,1382.775513 1643.766724,1382.022339 1655.112549,1381.955688 
	C1657.459595,1381.941895 1659.998901,1381.447998 1662.123535,1382.155151 
	C1676.953735,1387.089355 1692.022339,1388.253784 1707.480469,1386.143799 
	C1710.832520,1385.686401 1714.362427,1386.735962 1717.811768,1386.751099 
	C1730.350342,1386.806274 1743.156372,1388.342285 1755.371460,1386.335815 
	C1779.086304,1382.440552 1798.604126,1370.142578 1813.495483,1351.072998 
	C1830.505371,1329.290771 1837.310425,1304.340698 1833.764526,1277.165771 
	C1831.337158,1258.563843 1823.895996,1241.583862 1811.429565,1227.119629 
	C1809.974609,1225.431396 1808.826172,1223.231812 1808.243164,1221.078003 
	C1803.096069,1202.061768 1792.885376,1186.314575 1778.171509,1173.316650 
	C1776.397583,1171.749634 1775.126465,1169.444824 1774.066528,1167.265869 
	C1767.708740,1154.193970 1759.531494,1142.561768 1748.221802,1133.239014 
	C1742.284180,1128.344482 1735.646362,1123.916260 1730.938110,1117.994629 
	C1721.759644,1106.450806 1711.770996,1096.133423 1698.910522,1088.742554 
	C1695.388428,1086.718384 1691.311890,1084.934570 1688.842407,1081.928955 
	C1678.546265,1069.397827 1666.138550,1059.826782 1651.499390,1052.989502 
	C1649.768311,1052.180908 1647.997437,1051.060547 1646.769409,1049.633423 
	C1636.451172,1037.641113 1623.919556,1028.855835 1609.318115,1022.816345 
	C1606.233032,1021.540344 1603.252319,1019.519348 1600.837036,1017.202087 
	C1589.859375,1006.670349 1577.394165,998.699768 1562.919922,993.882324 
	C1560.967651,993.232605 1559.150024,992.039734 1557.424927,990.869934 
	C1549.145630,985.255615 1541.063354,979.337158 1532.629639,973.968628 
	C1525.793823,969.617310 1517.496582,968.142517 1511.391846,961.987915 
	C1503.452759,953.983948 1493.554077,948.676819 1482.989502,944.645264 
	C1479.215576,943.205139 1475.003418,941.909546 1472.126953,939.297363 
	C1460.621094,928.848755 1447.523071,921.508301 1432.738037,916.928162 
	C1430.324585,916.180481 1427.936035,914.898804 1425.935425,913.348572 
	C1415.519897,905.277710 1404.501587,898.471069 1391.702881,894.704895 
	C1385.528320,892.887939 1379.252441,891.474854 1373.821899,887.245544 
	C1364.734619,880.168030 1354.270874,875.612488 1343.026489,872.796692 
	C1340.284546,872.110046 1337.635132,870.405579 1335.353638,868.638916 
	C1324.799683,860.466248 1313.399048,854.098816 1300.337158,850.852173 
	C1297.861450,850.236755 1295.218262,849.179382 1293.317993,847.549744 
	C1282.264893,838.070374 1269.580811,831.887939 1255.666992,827.937683 
	C1253.525635,827.329712 1251.317871,826.322266 1249.609619,824.926086 
	C1238.788696,816.082336 1226.697388,809.671326 1213.228638,806.084412 
	C1207.019165,804.430664 1201.469727,801.966003 1195.849854,798.710815 
	C1187.030396,793.602356 1177.316528,789.992493 1167.846680,786.074036 
	C1163.819458,784.407593 1158.821533,784.502075 1155.356079,782.172791 
	C1144.995972,775.209167 1134.060791,769.724915 1122.245117,766.416748 
	C1121.949585,762.857422 1121.674561,759.544373 1121.399414,756.231262 
	C1120.999146,756.240723 1120.598877,756.250183 1120.198486,756.259583 
	C1120.063477,759.116577 1119.928345,761.973511 1119.737183,766.016663 
	C1116.038940,764.591370 1112.836426,763.600891 1109.850342,762.161194 
	C1100.215698,757.516418 1090.804199,752.380920 1081.025879,748.071899 
	C1074.304688,745.110107 1066.716553,744.665833 1060.459229,739.914246 
	C1051.679321,733.247131 1041.415039,729.470520 1030.686890,726.862610 
	C1026.794800,725.916382 1022.743713,724.568604 1019.461731,722.366028 
	C1009.655579,715.785278 999.347473,710.552856 987.815002,707.769409 
	C984.835510,707.050293 981.802979,706.043091 979.166138,704.523743 
	C974.510010,701.840576 970.115601,698.696838 965.666931,695.664795 
	C964.669861,694.985168 963.900574,693.971436 963.026367,693.111511 
	C963.985291,692.352905 964.834412,691.335266 965.919861,690.875061 
	C978.900085,685.372131 990.230225,677.501221 1000.086426,667.444580 
	C1001.337524,666.168152 1002.710876,664.718506 1004.314575,664.126526 
	C1018.429688,658.916260 1030.364868,650.499756 1040.734253,639.744873 
	C1044.558472,635.778503 1048.716675,632.530701 1053.686890,629.872803 
	C1060.327881,626.321411 1066.675781,621.934631 1072.394775,617.027100 
	C1078.057739,612.167603 1084.043213,608.261353 1090.596680,604.676697 
	C1099.613892,599.744263 1107.758789,593.220703 1116.299683,587.411560 
	C1119.393311,585.307373 1122.308716,582.664429 1125.722900,581.357178 
	C1138.520386,576.456726 1149.643799,569.187622 1159.269897,559.479248 
	C1160.980957,557.753540 1163.073364,556.317749 1165.191650,555.099243 
	C1173.943970,550.065002 1182.806274,545.221924 1191.561157,540.191895 
	C1195.501953,537.927673 1199.037842,534.780334 1203.188110,533.093262 
	C1214.302734,528.575378 1225.218994,523.827271 1234.552368,516.083130 
	C1239.710327,511.803619 1245.071899,508.125427 1251.298950,505.204468 
	C1261.177856,500.570618 1270.299927,494.325500 1279.756836,488.787018 
	C1281.437134,487.802887 1283.134277,486.815399 1284.915527,486.041168 
	C1293.399292,482.353973 1302.274902,479.389008 1310.322144,474.924957 
	C1319.119873,470.044739 1326.893188,463.512543 1337.167603,461.249298 
	C1341.618164,460.268890 1345.852539,457.539337 1349.735718,454.934357 
	C1355.248169,451.236328 1360.390503,446.976654 1365.608887,442.852997 
	C1372.241333,437.612000 1379.324829,434.124451 1388.173584,435.570526 
	C1389.920532,435.856049 1392.119019,435.186615 1393.710815,434.267456 
	C1398.093262,431.736877 1402.237671,428.797852 1406.529419,426.105286 
	C1408.850586,424.649048 1411.125854,422.780731 1413.687378,422.104645 
	C1425.872803,418.888550 1437.328857,414.217957 1447.678223,406.905670 
	C1451.251099,404.381378 1454.876831,401.316833 1458.942749,400.219360 
	C1471.717896,396.770905 1483.413940,391.430786 1494.066895,383.589020 
	C1496.738647,381.622284 1499.886353,380.036987 1503.056885,379.060120 
	C1514.732422,375.462830 1525.922241,371.033417 1535.964844,363.827240 
	C1539.139282,361.549225 1543.145996,360.242371 1546.949463,359.065155 
	C1557.641357,355.756042 1568.356689,352.692078 1577.579712,345.872101 
	C1581.352295,343.082367 1585.448608,340.085114 1589.857666,338.912689 
	C1609.243408,333.757843 1626.156006,324.676971 1639.988770,309.991394 
	C1641.609375,308.270966 1643.947754,307.024414 1646.180054,306.114258 
	C1666.266602,297.924225 1682.099243,284.688843 1693.003540,265.962280 
	C1697.110962,258.908325 1702.004639,252.835815 1707.765747,247.059525 
	C1732.066162,222.694321 1740.479248,192.800156 1734.628784,159.482895 
	C1730.008911,133.173645 1716.077148,111.931343 1693.569214,96.826714 
	C1670.578735,81.398178 1645.445557,76.331787 1618.409302,82.084953 
	C1608.400513,84.214760 1598.574829,86.079674 1588.222290,86.294678 
	C1578.933838,86.487564 1569.551636,88.625328 1560.483521,90.963219 
	C1552.876953,92.924286 1545.544800,94.917961 1537.513184,95.248169 
	C1528.450562,95.620766 1519.487183,98.250000 1510.463989,99.801178 
	C1505.651855,100.628441 1500.822754,101.426834 1495.969238,101.928749 
	C1487.441895,102.810600 1478.553345,102.248917 1470.436523,104.514572 
	C1461.051758,107.134125 1451.811157,107.780991 1442.245483,108.142708 
	C1433.940430,108.456749 1425.691650,110.340981 1417.427002,111.590355 
	C1415.500244,111.881622 1413.439697,113.124939 1411.729980,112.717133 
	C1400.312988,109.993935 1389.011230,110.864090 1377.642334,112.934464 
	C1373.954346,113.606079 1369.971191,114.438034 1366.416260,113.728287 
	C1355.252930,111.499634 1344.179810,111.585899 1332.932495,112.773369 
	C1327.888672,113.305893 1322.688721,112.501404 1317.571289,112.138687 
	C1314.481079,111.919670 1311.423218,111.257011 1308.333496,111.018326 
	C1302.749146,110.586922 1297.130493,110.528938 1291.564575,109.947380 
	C1280.200684,108.760025 1268.893555,106.796631 1257.505859,106.129959 
	C1242.618530,105.258408 1227.672485,105.442116 1212.758423,104.961349 
	C1203.122314,104.650711 1193.498291,103.963043 1184.125732,103.458168 
	C1179.277954,110.134384 1173.357178,114.914223 1164.819580,114.736473 
	C1140.385498,114.227768 1115.943726,113.776871 1091.530884,112.709946 
	C1081.288940,112.262344 1071.062622,110.625153 1060.921143,108.966331 
	C1052.217041,107.542618 1043.649780,106.021660 1034.816040,107.945572 
	C1030.277344,108.934105 1025.625977,109.803230 1021.003723,109.930099 
	C1010.791870,110.210388 1000.560974,109.786118 990.348572,110.055740 
	C985.483765,110.184174 980.374084,112.557610 975.842773,111.630188 
	C962.496216,108.898491 949.286560,109.533379 935.977173,111.027229 
	C933.219116,111.336807 930.293579,112.417053 927.733521,111.847015 
	C914.638184,108.931099 901.551636,109.205704 888.387695,110.982033 
	C885.146973,111.419334 881.687073,112.485374 878.652466,111.808159 
	C865.388855,108.848129 852.160950,109.085663 838.837769,110.967827 
	C836.506104,111.297226 833.974060,111.743874 831.771057,111.192062 
	C820.021362,108.248978 808.091797,108.903793 796.189758,109.051414 
	C792.245911,109.100319 788.037964,110.689964 784.415405,109.761795 
	C770.736023,106.256821 757.054565,106.105286 743.209534,107.959305 
	C742.075134,108.111214 740.829163,108.130760 739.742004,107.827751 
	C726.854248,104.235703 713.931885,101.625626 700.395813,103.852928 
	C697.126709,104.390854 693.405273,103.804367 690.195190,102.782272 
	C678.899475,99.185768 667.414978,98.168777 655.647095,98.871338 
	C649.991028,99.209023 644.111206,99.887314 638.663574,98.781631 
	C627.189270,96.452759 615.925964,94.204224 604.049133,95.765900 
	C598.909546,96.441696 593.472534,95.033607 588.190308,94.406746 
	C579.224487,93.342735 570.244629,91.097816 561.326965,91.348984 
	C554.527161,91.540512 548.032471,91.858185 541.391418,90.052231 
	C530.122803,86.987869 518.750549,85.058945 506.904602,86.785271 
	C502.368225,87.446365 497.461243,86.841576 492.913422,85.897278 
	C481.327271,83.491570 469.862122,81.008141 457.864105,82.835190 
	C453.988831,83.425301 449.801300,83.007019 445.909973,82.255707 
	C433.828186,79.923012 421.917297,76.553719 409.369385,78.861565 
	C405.210114,79.626549 400.526550,80.747063 396.717010,79.599380 
	C385.786591,76.306419 374.749481,75.695061 363.516876,75.946274 
	C358.172516,76.065804 352.822083,76.017349 347.476196,75.932465 
	C342.893585,75.859695 338.313019,75.638916 333.732452,75.461243 
	C328.500946,75.258316 323.258575,75.181526 318.042877,74.770592 
	C313.003143,74.373520 307.998474,73.547913 302.963989,73.058876 
	C300.800720,72.848732 298.494843,73.444504 296.435181,72.937325 
	C283.125580,69.659943 269.741821,68.978378 256.156586,70.840767 
	C253.467682,71.209381 250.505920,70.819084 247.863510,70.083534 
	C236.066849,66.799774 224.038788,66.741104 211.956970,66.972900 
	C209.098572,67.027740 206.045792,67.340874 203.402298,66.513374 
	C186.896255,61.346470 170.287552,60.515869 153.309784,63.889618 
	C110.371422,72.422134 79.638512,107.884216 75.160919,150.177017 
	C72.970024,170.871033 77.081497,190.810974 88.049881,208.778351 
	C92.626366,216.275131 95.716560,223.779770 97.473656,232.597916 
	C103.803734,264.366180 121.867203,287.775543 150.909698,302.545502 
	C153.037979,303.627838 155.040298,305.362976 156.518204,307.250946 
	C164.094437,316.929535 173.638199,324.138184 184.189407,330.218475 
	C186.097046,331.317810 187.633652,333.111969 189.223022,334.703674 
	C195.779739,341.270142 202.134430,348.047668 208.875229,354.417633 
	C213.159286,358.466003 218.920532,361.228180 222.395462,365.801117 
	C231.019760,377.150574 240.693344,387.102081 252.882675,394.586853 
	C254.779922,395.751831 256.177429,397.767670 257.718292,399.469482 
	C263.683899,406.058502 269.435577,412.852753 275.619385,419.228668 
	C279.822723,423.562561 284.951782,427.010468 289.068359,431.414093 
	C296.845642,439.733734 304.193237,448.455109 311.715088,457.013336 
	C312.796722,458.243988 314.207367,459.332428 314.868469,460.762787 
	C320.724396,473.431976 329.475494,483.825684 339.628784,493.226715 
	C341.850372,495.283752 343.707947,497.953857 345.080536,500.671265 
	C352.311859,514.987488 362.610901,526.671326 375.055298,536.622070 
	C376.790833,538.009888 378.601166,539.597046 379.659363,541.492493 
	C388.061768,556.543091 399.453796,568.678650 414.140350,577.731995 
	C415.511719,578.577393 416.991241,579.599915 417.820679,580.917725 
	C426.652008,594.948486 438.546906,605.692871 452.737274,614.072815 
	C454.256653,614.969971 455.714172,616.243958 456.732269,617.676025 
	C467.216492,632.423096 480.670502,643.506226 497.152832,650.966736 
	C499.074829,651.836670 501.213501,652.816162 502.520538,654.362732 
	C512.535095,666.213257 524.924744,674.662537 539.059875,680.809875 
	C541.705750,681.960510 544.426147,683.479248 546.415222,685.510559 
	C557.221191,696.546021 569.854980,704.616333 584.297607,709.996216 
	C586.448242,710.797363 588.350159,712.266235 590.885193,713.724182 
	C586.465149,717.397217 582.816284,720.486206 579.103088,723.495972 
	C576.433228,725.659973 573.980225,728.507812 570.907288,729.685730 
	C558.106384,734.592468 546.808289,741.661743 536.893188,751.102783 
	C535.067200,752.841370 532.666443,754.123962 530.325989,755.148987 
	C519.763611,759.774597 509.472504,764.721191 500.677490,772.472107 
	C495.687775,776.869507 490.733246,781.179993 484.371674,784.142029 
	C475.382385,788.327759 467.096008,794.122314 458.806915,799.673706 
	C454.179230,802.772827 450.677521,807.946411 445.756714,810.139465 
	C432.146332,816.205078 419.990021,824.042236 409.656677,834.768677 
	C408.202667,836.278076 406.490295,837.824524 404.589996,838.572144 
	C391.660370,843.658386 380.570068,851.355408 370.934906,861.312073 
	C369.145325,863.161255 366.963623,864.931030 364.616760,865.891907 
	C350.184021,871.800415 338.015808,880.797668 327.314880,892.034973 
	C324.668152,894.814453 321.515564,897.357910 318.140045,899.153564 
	C305.992218,905.615662 295.328949,913.794373 286.562164,924.447876 
	C285.229401,926.067505 283.483765,927.604492 281.602875,928.474365 
	C268.890686,934.353577 258.477631,943.110352 249.009094,953.284424 
	C245.857025,956.671387 241.629990,959.048645 237.941467,961.947449 
	C229.386398,968.670959 220.857651,975.427979 212.324158,982.178894 
	C210.430344,983.677002 208.680542,985.392761 206.658936,986.687439 
	C198.661926,991.808960 190.612717,996.851074 182.515549,1001.812744 
	C180.311340,1003.163452 177.886017,1004.160461 175.537048,1005.266418 
	C166.106857,1009.706177 156.633636,1014.056213 147.248611,1018.589111 
	C144.024673,1020.146240 141.209198,1023.058960 137.868637,1023.776306 
	C123.355614,1026.893311 110.261276,1032.805420 98.497360,1041.812256 
	C94.344383,1044.991821 90.450417,1049.015259 85.736465,1050.866089 
	C68.134750,1057.777222 52.541271,1067.140747 40.318275,1081.966675 
	C27.703354,1097.267944 20.135809,1114.770142 18.208124,1134.183472 
	C15.719665,1159.244141 21.860096,1182.452881 37.103436,1202.928223 
	C40.020363,1206.846313 43.310627,1210.722290 45.182209,1215.145142 
	C58.432251,1246.457275 81.061165,1266.753906 114.186203,1275.104248 
	C118.405815,1276.167969 123.169197,1276.534546 126.656075,1278.800537 
	C144.756744,1290.564697 164.389404,1296.461548 185.961090,1296.040161 
	C187.385941,1296.012207 188.920898,1296.316040 190.237518,1296.865723 
	C204.227356,1302.706787 218.705566,1305.790405 233.933945,1305.068481 
	C236.206055,1304.960693 238.721939,1304.952881 240.761169,1305.787720 
	C254.905716,1311.578247 269.579987,1313.784790 284.786407,1313.051636 
	C286.881775,1312.950562 289.164764,1313.015503 291.090942,1313.730713 
	C304.093262,1318.558228 317.453918,1320.688477 331.329132,1320.152954 
	C334.640717,1320.025269 338.145325,1320.792358 341.317261,1321.867432 
	C354.474304,1326.326416 367.949677,1329.201294 381.792572,1327.775513 
	C388.001526,1327.136108 393.736572,1327.369263 399.615173,1329.059937 
	C412.375854,1332.729980 425.336212,1332.906616 438.418671,1331.180054 
	C440.111237,1330.956665 441.996735,1331.471924 443.678497,1332.005371 
	C456.626404,1336.113770 469.942413,1336.425171 483.335419,1335.985596 
	C486.416138,1335.884521 489.732330,1334.815186 492.530487,1335.618530 
	C506.606812,1339.659668 520.745422,1341.347046 535.340942,1339.139648 
	C538.634277,1338.641602 542.196045,1339.388672 545.560059,1339.982544 
	C557.833374,1342.149780 570.034607,1344.530518 582.615723,1342.126831 
	C586.170654,1341.447632 590.085327,1341.339844 593.612488,1342.060059 
	C606.944519,1344.782227 620.248962,1346.291748 633.831848,1344.118164 
	C638.429077,1343.382324 643.297302,1342.428711 647.769104,1343.185547 
	C660.095764,1345.271973 672.335083,1345.747559 684.706055,1344.036499 
	C688.669250,1343.488403 692.832581,1342.498047 696.653564,1343.159180 
	C708.966248,1345.290039 721.212524,1345.754272 733.588379,1344.046143 
	C737.877441,1343.453979 742.395752,1342.456787 746.529602,1343.200195 
	C758.187561,1345.296387 769.757080,1345.787842 781.468262,1344.057983 
	C786.965576,1343.245850 792.758667,1341.421997 797.986816,1342.388184 
	C811.675110,1344.917725 825.022339,1344.414429 838.458923,1341.336182 
	C840.889648,1340.779297 843.493164,1340.832642 846.015686,1340.845703 
	C857.075256,1340.903198 868.138306,1341.269653 879.191772,1341.066650 
	C884.392944,1340.971069 889.773438,1338.618530 894.727356,1339.420654 
	C907.590454,1341.503296 920.236633,1341.736572 933.012390,1339.196899 
	C938.128296,1338.179932 943.452576,1336.838501 948.533386,1337.296143 
	C960.148987,1338.342041 971.610962,1338.656250 983.059875,1336.093750 
	C986.361084,1335.354858 989.879700,1334.086548 993.062195,1334.581543 
	C1005.928894,1336.582275 1018.663025,1336.813965 1031.451660,1334.113403 
	C1035.040283,1333.355591 1038.769409,1332.969971 1042.438354,1332.940918 
	C1053.156860,1332.855835 1063.884033,1333.286011 1074.594971,1333.013306 
	C1080.370483,1332.866333 1086.107178,1331.247925 1091.884155,1331.081177 
	C1102.767090,1330.767090 1113.670776,1331.205322 1124.556885,1330.947632 
	C1128.605957,1330.851807 1132.647827,1329.025269 1136.661255,1329.136230 
	C1145.556641,1329.381836 1154.568481,1329.645386 1163.260010,1331.318604 
	C1167.851807,1332.202515 1168.379395,1330.410522 1169.651245,1327.377686 
	C1175.929443,1312.407104 1194.755493,1309.585083 1205.244507,1321.955200 
	C1206.643799,1323.605347 1208.213623,1325.127930 1209.472534,1326.876587 
	C1212.834717,1331.546875 1217.272217,1331.324097 1222.341675,1330.582764 
	C1227.426636,1329.838989 1232.668945,1329.919678 1237.833740,1330.031494 
	C1246.030640,1330.208984 1254.220093,1330.990112 1262.413330,1330.999756 
	C1270.374268,1331.009277 1278.340942,1330.017944 1286.295898,1330.129272 
	C1292.331055,1330.213623 1298.337524,1331.659912 1304.381958,1331.925537 
	C1313.262817,1332.315552 1322.292480,1330.751587 1330.791016,1334.919556 
	C1332.601807,1335.807861 1334.912720,1335.667969 1336.989746,1336.023071 
	C1344.992676,1337.390991 1352.721924,1339.097656 1359.795654,1343.748657 
	C1364.054077,1346.548462 1369.551880,1347.463257 1374.716797,1349.305176 
	C1374.955688,1347.234619 1375.137451,1345.659180 1375.320923,1344.067627 
	C1376.794556,1344.067627 1378.009521,1343.835083 1379.101196,1344.103882 
	C1388.903442,1346.518066 1398.670532,1348.586182 1408.672363,1344.936768 
	C1410.992920,1344.090210 1413.514282,1343.679077 1415.981323,1343.368042 
	C1427.466187,1341.919678 1438.730347,1341.064819 1448.714844,1349.165527 
	C1452.747925,1352.437744 1457.630371,1354.835205 1462.421265,1356.968140 
	C1475.367188,1362.732056 1489.061646,1364.591431 1503.168823,1364.056396 
	C1506.775513,1363.919556 1510.651123,1363.682251 1513.982910,1364.773682 
	C1526.187622,1368.771851 1538.585571,1370.425171 1551.411499,1370.187622 
	C1556.917725,1370.085693 1562.465210,1371.376831 1567.969360,1372.199341 
	C1576.067017,1373.409424 1584.102905,1375.362305 1592.238037,1375.905273 
	C1601.720337,1376.537964 1611.363159,1375.213867 1621.329590,1379.137695 
z"/>
<path fill="#FFFFFF" opacity="1.000000" stroke="none" 
	d="
M1620.907349,1379.084473 
	C1611.363159,1375.213867 1601.720337,1376.537964 1592.238037,1375.905273 
	C1584.102905,1375.362305 1576.067017,1373.409424 1567.969360,1372.199341 
	C1562.465210,1371.376831 1556.917725,1370.085693 1551.411499,1370.187622 
	C1538.585571,1370.425171 1526.187622,1368.771851 1513.982910,1364.773682 
	C1510.651123,1363.682251 1506.775513,1363.919556 1503.168823,1364.056396 
	C1489.061646,1364.591431 1475.367188,1362.732056 1462.421265,1356.968140 
	C1457.630371,1354.835205 1452.747925,1352.437744 1448.714844,1349.165527 
	C1438.730347,1341.064819 1427.466187,1341.919678 1415.981323,1343.368042 
	C1413.514282,1343.679077 1410.992920,1344.090210 1408.672363,1344.936768 
	C1398.670532,1348.586182 1388.903442,1346.518066 1379.101196,1344.103882 
	C1378.009521,1343.835083 1376.794556,1344.067627 1375.320923,1344.067627 
	C1375.137451,1345.659180 1374.955688,1347.234619 1374.716797,1349.305176 
	C1369.551880,1347.463257 1364.054077,1346.548462 1359.795654,1343.748657 
	C1352.721924,1339.097656 1344.992676,1337.390991 1336.989746,1336.023071 
	C1334.912720,1335.667969 1332.601807,1335.807861 1330.791016,1334.919556 
	C1322.292480,1330.751587 1313.262817,1332.315552 1304.381958,1331.925537 
	C1298.337524,1331.659912 1292.331055,1330.213623 1286.295898,1330.129272 
	C1278.340942,1330.017944 1270.374268,1331.009277 1262.413330,1330.999756 
	C1254.220093,1330.990112 1246.030640,1330.208984 1237.833740,1330.031494 
	C1232.668945,1329.919678 1227.426636,1329.838989 1222.341675,1330.582764 
	C1217.272217,1331.324097 1212.834717,1331.546875 1209.472534,1326.876587 
	C1208.213623,1325.127930 1206.643799,1323.605347 1205.244507,1321.955200 
	C1194.755493,1309.585083 1175.929443,1312.407104 1169.651245,1327.377686 
	C1168.379395,1330.410522 1167.851807,1332.202515 1163.260010,1331.318604 
	C1154.568481,1329.645386 1145.556641,1329.381836 1136.661255,1329.136230 
	C1132.647827,1329.025269 1128.605957,1330.851807 1124.556885,1330.947632 
	C1113.670776,1331.205322 1102.767090,1330.767090 1091.884155,1331.081177 
	C1086.107178,1331.247925 1080.370483,1332.866333 1074.594971,1333.013306 
	C1063.884033,1333.286011 1053.156860,1332.855835 1042.438354,1332.940918 
	C1038.769409,1332.969971 1035.040283,1333.355591 1031.451660,1334.113403 
	C1018.663025,1336.813965 1005.928894,1336.582275 993.062195,1334.581543 
	C989.879700,1334.086548 986.361084,1335.354858 983.059875,1336.093750 
	C971.610962,1338.656250 960.148987,1338.342041 948.533386,1337.296143 
	C943.452576,1336.838501 938.128296,1338.179932 933.012390,1339.196899 
	C920.236633,1341.736572 907.590454,1341.503296 894.727356,1339.420654 
	C889.773438,1338.618530 884.392944,1340.971069 879.191772,1341.066650 
	C868.138306,1341.269653 857.075256,1340.903198 846.015686,1340.845703 
	C843.493164,1340.832642 840.889648,1340.779297 838.458923,1341.336182 
	C825.022339,1344.414429 811.675110,1344.917725 797.986816,1342.388184 
	C792.758667,1341.421997 786.965576,1343.245850 781.468262,1344.057983 
	C769.757080,1345.787842 758.187561,1345.296387 746.529602,1343.200195 
	C742.395752,1342.456787 737.877441,1343.453979 733.588379,1344.046143 
	C721.212524,1345.754272 708.966248,1345.290039 696.653564,1343.159180 
	C692.832581,1342.498047 688.669250,1343.488403 684.706055,1344.036499 
	C672.335083,1345.747559 660.095764,1345.271973 647.769104,1343.185547 
	C643.297302,1342.428711 638.429077,1343.382324 633.831848,1344.118164 
	C620.248962,1346.291748 606.944519,1344.782227 593.612488,1342.060059 
	C590.085327,1341.339844 586.170654,1341.447632 582.615723,1342.126831 
	C570.034607,1344.530518 557.833374,1342.149780 545.560059,1339.982544 
	C542.196045,1339.388672 538.634277,1338.641602 535.340942,1339.139648 
	C520.745422,1341.347046 506.606812,1339.659668 492.530487,1335.618530 
	C489.732330,1334.815186 486.416138,1335.884521 483.335419,1335.985596 
	C469.942413,1336.425171 456.626404,1336.113770 443.678497,1332.005371 
	C441.996735,1331.471924 440.111237,1330.956665 438.418671,1331.180054 
	C425.336212,1332.906616 412.375854,1332.729980 399.615173,1329.059937 
	C393.736572,1327.369263 388.001526,1327.136108 381.792572,1327.775513 
	C367.949677,1329.201294 354.474304,1326.326416 341.317261,1321.867432 
	C338.145325,1320.792358 334.640717,1320.025269 331.329132,1320.152954 
	C317.453918,1320.688477 304.093262,1318.558228 291.090942,1313.730713 
	C289.164764,1313.015503 286.881775,1312.950562 284.786407,1313.051636 
	C269.579987,1313.784790 254.905716,1311.578247 240.761169,1305.787720 
	C238.721939,1304.952881 236.206055,1304.960693 233.933945,1305.068481 
	C218.705566,1305.790405 204.227356,1302.706787 190.237518,1296.865723 
	C188.920898,1296.316040 187.385941,1296.012207 185.961090,1296.040161 
	C164.389404,1296.461548 144.756744,1290.564697 126.656075,1278.800537 
	C123.169197,1276.534546 118.405815,1276.167969 114.186203,1275.104248 
	C81.061165,1266.753906 58.432251,1246.457275 45.182209,1215.145142 
	C43.310627,1210.722290 40.020363,1206.846313 37.103436,1202.928223 
	C21.860096,1182.452881 15.719665,1159.244141 18.208124,1134.183472 
	C20.135809,1114.770142 27.703354,1097.267944 40.318275,1081.966675 
	C52.541271,1067.140747 68.134750,1057.777222 85.736465,1050.866089 
	C90.450417,1049.015259 94.344383,1044.991821 98.497360,1041.812256 
	C110.261276,1032.805420 123.355614,1026.893311 137.868637,1023.776306 
	C141.209198,1023.058960 144.024673,1020.146240 147.248611,1018.589111 
	C156.633636,1014.056213 166.106857,1009.706177 175.537048,1005.266418 
	C177.886017,1004.160461 180.311340,1003.163452 182.515549,1001.812744 
	C190.612717,996.851074 198.661926,991.808960 206.658936,986.687439 
	C208.680542,985.392761 210.430344,983.677002 212.324158,982.178894 
	C220.857651,975.427979 229.386398,968.670959 237.941467,961.947449 
	C241.629990,959.048645 245.857025,956.671387 249.009094,953.284424 
	C258.477631,943.110352 268.890686,934.353577 281.602875,928.474365 
	C283.483765,927.604492 285.229401,926.067505 286.562164,924.447876 
	C295.328949,913.794373 305.992218,905.615662 318.140045,899.153564 
	C321.515564,897.357910 324.668152,894.814453 327.314880,892.034973 
	C338.015808,880.797668 350.184021,871.800415 364.616760,865.891907 
	C366.963623,864.931030 369.145325,863.161255 370.934906,861.312073 
	C380.570068,851.355408 391.660370,843.658386 404.589996,838.572144 
	C406.490295,837.824524 408.202667,836.278076 409.656677,834.768677 
	C419.990021,824.042236 432.146332,816.205078 445.756714,810.139465 
	C450.677521,807.946411 454.179230,802.772827 458.806915,799.673706 
	C467.096008,794.122314 475.382385,788.327759 484.371674,784.142029 
	C490.733246,781.179993 495.687775,776.869507 500.677490,772.472107 
	C509.472504,764.721191 519.763611,759.774597 530.325989,755.148987 
	C532.666443,754.123962 535.067200,752.841370 536.893188,751.102783 
	C546.808289,741.661743 558.106384,734.592468 570.907288,729.685730 
	C573.980225,728.507812 576.433228,725.659973 579.103088,723.495972 
	C582.816284,720.486206 586.465149,717.397217 590.885193,713.724182 
	C588.350159,712.266235 586.448242,710.797363 584.297607,709.996216 
	C569.854980,704.616333 557.221191,696.546021 546.415222,685.510559 
	C544.426147,683.479248 541.705750,681.960510 539.059875,680.809875 
	C524.924744,674.662537 512.535095,666.213257 502.520538,654.362732 
	C501.213501,652.816162 499.074829,651.836670 497.152832,650.966736 
	C480.670502,643.506226 467.216492,632.423096 456.732269,617.676025 
	C455.714172,616.243958 454.256653,614.969971 452.737274,614.072815 
	C438.546906,605.692871 426.652008,594.948486 417.820679,580.917725 
	C416.991241,579.599915 415.511719,578.577393 414.140350,577.731995 
	C399.453796,568.678650 388.061768,556.543091 379.659363,541.492493 
	C378.601166,539.597046 376.790833,538.009888 375.055298,536.622070 
	C362.610901,526.671326 352.311859,514.987488 345.080536,500.671265 
	C343.707947,497.953857 341.850372,495.283752 339.628784,493.226715 
	C329.475494,483.825684 320.724396,473.431976 314.868469,460.762787 
	C314.207367,459.332428 312.796722,458.243988 311.715088,457.013336 
	C304.193237,448.455109 296.845642,439.733734 289.068359,431.414093 
	C284.951782,427.010468 279.822723,423.562561 275.619385,419.228668 
	C269.435577,412.852753 263.683899,406.058502 257.718292,399.469482 
	C256.177429,397.767670 254.779922,395.751831 252.882675,394.586853 
	C240.693344,387.102081 231.019760,377.150574 222.395462,365.801117 
	C218.920532,361.228180 213.159286,358.466003 208.875229,354.417633 
	C202.134430,348.047668 195.779739,341.270142 189.223022,334.703674 
	C187.633652,333.111969 186.097046,331.317810 184.189407,330.218475 
	C173.638199,324.138184 164.094437,316.929535 156.518204,307.250946 
	C155.040298,305.362976 153.037979,303.627838 150.909698,302.545502 
	C121.867203,287.775543 103.803734,264.366180 97.473656,232.597916 
	C95.716560,223.779770 92.626366,216.275131 88.049881,208.778351 
	C77.081497,190.810974 72.970024,170.871033 75.160919,150.177017 
	C79.638512,107.884216 110.371422,72.422134 153.309784,63.889618 
	C170.287552,60.515869 186.896255,61.346470 203.402298,66.513374 
	C206.045792,67.340874 209.098572,67.027740 211.956970,66.972900 
	C224.038788,66.741104 236.066849,66.799774 247.863510,70.083534 
	C250.505920,70.819084 253.467682,71.209381 256.156586,70.840767 
	C269.741821,68.978378 283.125580,69.659943 296.435181,72.937325 
	C298.494843,73.444504 300.800720,72.848732 302.963989,73.058876 
	C307.998474,73.547913 313.003143,74.373520 318.042877,74.770592 
	C323.258575,75.181526 328.500946,75.258316 333.732452,75.461243 
	C338.313019,75.638916 342.893585,75.859695 347.476196,75.932465 
	C352.822083,76.017349 358.172516,76.065804 363.516876,75.946274 
	C374.749481,75.695061 385.786591,76.306419 396.717010,79.599380 
	C400.526550,80.747063 405.210114,79.626549 409.369385,78.861565 
	C421.917297,76.553719 433.828186,79.923012 445.909973,82.255707 
	C449.801300,83.007019 453.988831,83.425301 457.864105,82.835190 
	C469.862122,81.008141 481.327271,83.491570 492.913422,85.897278 
	C497.461243,86.841576 502.368225,87.446365 506.904602,86.785271 
	C518.750549,85.058945 530.122803,86.987869 541.391418,90.052231 
	C548.032471,91.858185 554.527161,91.540512 561.326965,91.348984 
	C570.244629,91.097816 579.224487,93.342735 588.190308,94.406746 
	C593.472534,95.033607 598.909546,96.441696 604.049133,95.765900 
	C615.925964,94.204224 627.189270,96.452759 638.663574,98.781631 
	C644.111206,99.887314 649.991028,99.209023 655.647095,98.871338 
	C667.414978,98.168777 678.899475,99.185768 690.195190,102.782272 
	C693.405273,103.804367 697.126709,104.390854 700.395813,103.852928 
	C713.931885,101.625626 726.854248,104.235703 739.742004,107.827751 
	C740.829163,108.130760 742.075134,108.111214 743.209534,107.959305 
	C757.054565,106.105286 770.736023,106.256821 784.415405,109.761795 
	C788.037964,110.689964 792.245911,109.100319 796.189758,109.051414 
	C808.091797,108.903793 820.021362,108.248978 831.771057,111.192062 
	C833.974060,111.743874 836.506104,111.297226 838.837769,110.967827 
	C852.160950,109.085663 865.388855,108.848129 878.652466,111.808159 
	C881.687073,112.485374 885.146973,111.419334 888.387695,110.982033 
	C901.551636,109.205704 914.638184,108.931099 927.733521,111.847015 
	C930.293579,112.417053 933.219116,111.336807 935.977173,111.027229 
	C949.286560,109.533379 962.496216,108.898491 975.842773,111.630188 
	C980.374084,112.557610 985.483765,110.184174 990.348572,110.055740 
	C1000.560974,109.786118 1010.791870,110.210388 1021.003723,109.930099 
	C1025.625977,109.803230 1030.277344,108.934105 1034.816040,107.945572 
	C1043.649780,106.021660 1052.217041,107.542618 1060.921143,108.966331 
	C1071.062622,110.625153 1081.288940,112.262344 1091.530884,112.709946 
	C1115.943726,113.776871 1140.385498,114.227768 1164.819580,114.736473 
	C1173.357178,114.914223 1179.277954,110.134384 1184.125732,103.458168 
	C1193.498291,103.963043 1203.122314,104.650711 1212.758423,104.961349 
	C1227.672485,105.442116 1242.618530,105.258408 1257.505859,106.129959 
	C1268.893555,106.796631 1280.200684,108.760025 1291.564575,109.947380 
	C1297.130493,110.528938 1302.749146,110.586922 1308.333496,111.018326 
	C1311.423218,111.257011 1314.481079,111.919670 1317.571289,112.138687 
	C1322.688721,112.501404 1327.888672,113.305893 1332.932495,112.773369 
	C1344.179810,111.585899 1355.252930,111.499634 1366.416260,113.728287 
	C1369.971191,114.438034 1373.954346,113.606079 1377.642334,112.934464 
	C1389.011230,110.864090 1400.312988,109.993935 1411.729980,112.717133 
	C1413.439697,113.124939 1415.500244,111.881622 1417.427002,111.590355 
	C1425.691650,110.340981 1433.940430,108.456749 1442.245483,108.142708 
	C1451.811157,107.780991 1461.051758,107.134125 1470.436523,104.514572 
	C1478.553345,102.248917 1487.441895,102.810600 1495.969238,101.928749 
	C1500.822754,101.426834 1505.651855,100.628441 1510.463989,99.801178 
	C1519.487183,98.250000 1528.450562,95.620766 1537.513184,95.248169 
	C1545.544800,94.917961 1552.876953,92.924286 1560.483521,90.963219 
	C1569.551636,88.625328 1578.933838,86.487564 1588.222290,86.294678 
	C1598.574829,86.079674 1608.400513,84.214760 1618.409302,82.084953 
	C1645.445557,76.331787 1670.578735,81.398178 1693.569214,96.826714 
	C1716.077148,111.931343 1730.008911,133.173645 1734.628784,159.482895 
	C1740.479248,192.800156 1732.066162,222.694321 1707.765747,247.059525 
	C1702.004639,252.835815 1697.110962,258.908325 1693.003540,265.962280 
	C1682.099243,284.688843 1666.266602,297.924225 1646.180054,306.114258 
	C1643.947754,307.024414 1641.609375,308.270966 1639.988770,309.991394 
	C1626.156006,324.676971 1609.243408,333.757843 1589.857666,338.912689 
	C1585.448608,340.085114 1581.352295,343.082367 1577.579712,345.872101 
	C1568.356689,352.692078 1557.641357,355.756042 1546.949463,359.065155 
	C1543.145996,360.242371 1539.139282,361.549225 1535.964844,363.827240 
	C1525.922241,371.033417 1514.732422,375.462830 1503.056885,379.060120 
	C1499.886353,380.036987 1496.738647,381.622284 1494.066895,383.589020 
	C1483.413940,391.430786 1471.717896,396.770905 1458.942749,400.219360 
	C1454.876831,401.316833 1451.251099,404.381378 1447.678223,406.905670 
	C1437.328857,414.217957 1425.872803,418.888550 1413.687378,422.104645 
	C1411.125854,422.780731 1408.850586,424.649048 1406.529419,426.105286 
	C1402.237671,428.797852 1398.093262,431.736877 1393.710815,434.267456 
	C1392.119019,435.186615 1389.920532,435.856049 1388.173584,435.570526 
	C1379.324829,434.124451 1372.241333,437.612000 1365.608887,442.852997 
	C1360.390503,446.976654 1355.248169,451.236328 1349.735718,454.934357 
	C1345.852539,457.539337 1341.618164,460.268890 1337.167603,461.249298 
	C1326.893188,463.512543 1319.119873,470.044739 1310.322144,474.924957 
	C1302.274902,479.389008 1293.399292,482.353973 1284.915527,486.041168 
	C1283.134277,486.815399 1281.437134,487.802887 1279.756836,488.787018 
	C1270.299927,494.325500 1261.177856,500.570618 1251.298950,505.204468 
	C1245.071899,508.125427 1239.710327,511.803619 1234.552368,516.083130 
	C1225.218994,523.827271 1214.302734,528.575378 1203.188110,533.093262 
	C1199.037842,534.780334 1195.501953,537.927673 1191.561157,540.191895 
	C1182.806274,545.221924 1173.943970,550.065002 1165.191650,555.099243 
	C1163.073364,556.317749 1160.980957,557.753540 1159.269897,559.479248 
	C1149.643799,569.187622 1138.520386,576.456726 1125.722900,581.357178 
	C1122.308716,582.664429 1119.393311,585.307373 1116.299683,587.411560 
	C1107.758789,593.220703 1099.613892,599.744263 1090.596680,604.676697 
	C1084.043213,608.261353 1078.057739,612.167603 1072.394775,617.027100 
	C1066.675781,621.934631 1060.327881,626.321411 1053.686890,629.872803 
	C1048.716675,632.530701 1044.558472,635.778503 1040.734253,639.744873 
	C1030.364868,650.499756 1018.429688,658.916260 1004.314575,664.126526 
	C1002.710876,664.718506 1001.337524,666.168152 1000.086426,667.444580 
	C990.230225,677.501221 978.900085,685.372131 965.919861,690.875061 
	C964.834412,691.335266 963.985291,692.352905 963.026367,693.111572 
	C963.900574,693.971436 964.669861,694.985168 965.666931,695.664795 
	C970.115601,698.696838 974.510010,701.840576 979.166138,704.523743 
	C981.802979,706.043091 984.835510,707.050293 987.815002,707.769409 
	C999.347473,710.552856 1009.655579,715.785278 1019.461731,722.366028 
	C1022.743713,724.568604 1026.794800,725.916382 1030.686890,726.862610 
	C1041.415039,729.470520 1051.679321,733.247131 1060.459229,739.914246 
	C1066.716553,744.665833 1074.304688,745.110107 1081.025879,748.071899 
	C1090.804199,752.380920 1100.215698,757.516418 1109.850342,762.161194 
	C1112.836426,763.600891 1116.038940,764.591370 1119.737183,766.016663 
	C1119.928345,761.973511 1120.063477,759.116577 1120.198486,756.259583 
	C1120.598877,756.250183 1120.999146,756.240723 1121.399414,756.231262 
	C1121.674561,759.544373 1121.949585,762.857422 1122.245117,766.416748 
	C1134.060791,769.724915 1144.995972,775.209167 1155.356079,782.172791 
	C1158.821533,784.502075 1163.819458,784.407593 1167.846680,786.074036 
	C1177.316528,789.992493 1187.030396,793.602356 1195.849854,798.710815 
	C1201.469727,801.966003 1207.019165,804.430664 1213.228638,806.084412 
	C1226.697388,809.671326 1238.788696,816.082336 1249.609619,824.926086 
	C1251.317871,826.322266 1253.525635,827.329712 1255.666992,827.937683 
	C1269.580811,831.887939 1282.264893,838.070374 1293.317993,847.549744 
	C1295.218262,849.179382 1297.861450,850.236755 1300.337158,850.852173 
	C1313.399048,854.098816 1324.799683,860.466248 1335.353638,868.638916 
	C1337.635132,870.405579 1340.284546,872.110046 1343.026489,872.796692 
	C1354.270874,875.612488 1364.734619,880.168030 1373.821899,887.245544 
	C1379.252441,891.474854 1385.528320,892.887939 1391.702881,894.704895 
	C1404.501587,898.471069 1415.519897,905.277710 1425.935425,913.348572 
	C1427.936035,914.898804 1430.324585,916.180481 1432.738037,916.928162 
	C1447.523071,921.508301 1460.621094,928.848755 1472.126953,939.297363 
	C1475.003418,941.909546 1479.215576,943.205139 1482.989502,944.645264 
	C1493.554077,948.676819 1503.452759,953.983948 1511.391846,961.987915 
	C1517.496582,968.142517 1525.793823,969.617310 1532.629639,973.968628 
	C1541.063354,979.337158 1549.145630,985.255615 1557.424927,990.869934 
	C1559.150024,992.039734 1560.967651,993.232605 1562.919922,993.882324 
	C1577.394165,998.699768 1589.859375,1006.670349 1600.837036,1017.202087 
	C1603.252319,1019.519348 1606.233032,1021.540344 1609.318115,1022.816345 
	C1623.919556,1028.855835 1636.451172,1037.641113 1646.769409,1049.633423 
	C1647.997437,1051.060547 1649.768311,1052.180908 1651.499390,1052.989502 
	C1666.138550,1059.826782 1678.546265,1069.397827 1688.842407,1081.928955 
	C1691.311890,1084.934570 1695.388428,1086.718384 1698.910522,1088.742554 
	C1711.770996,1096.133423 1721.759644,1106.450806 1730.938110,1117.994629 
	C1735.646362,1123.916260 1742.284180,1128.344482 1748.221802,1133.239014 
	C1759.531494,1142.561768 1767.708740,1154.193970 1774.066528,1167.265869 
	C1775.126465,1169.444824 1776.397583,1171.749634 1778.171509,1173.316650 
	C1792.885376,1186.314575 1803.096069,1202.061768 1808.243164,1221.078003 
	C1808.826172,1223.231812 1809.974609,1225.431396 1811.429565,1227.119629 
	C1823.895996,1241.583862 1831.337158,1258.563843 1833.764526,1277.165771 
	C1837.310425,1304.340698 1830.505371,1329.290771 1813.495483,1351.072998 
	C1798.604126,1370.142578 1779.086304,1382.440552 1755.371460,1386.335815 
	C1743.156372,1388.342285 1730.350342,1386.806274 1717.811768,1386.751099 
	C1714.362427,1386.735962 1710.832520,1385.686401 1707.480469,1386.143799 
	C1692.022339,1388.253784 1676.953735,1387.089355 1662.123535,1382.155151 
	C1659.998901,1381.447998 1657.459595,1381.941895 1655.112549,1381.955688 
	C1643.766724,1382.022339 1632.365845,1382.775513 1620.907349,1379.084473 
M968.163818,912.341064 
	C962.601624,909.262207 957.063110,906.139343 951.468140,903.121277 
	C948.197266,901.356873 945.003906,899.006775 941.485352,898.222778 
	C928.705566,895.375122 916.976929,890.400024 906.241638,882.915100 
	C903.478516,880.988586 900.501770,878.989624 897.322388,878.105347 
	C884.494995,874.537659 872.330261,869.737061 861.318420,862.051453 
	C856.428711,858.638733 851.073486,855.819946 845.711304,853.173950 
	C837.111877,848.930420 827.867004,845.805603 819.764954,840.799805 
	C812.543762,836.338074 805.774231,831.472778 797.439209,829.085632 
	C792.436523,827.652771 787.674683,823.361572 782.943848,823.566711 
	C778.260559,823.769836 773.736755,827.979431 769.171814,830.484192 
	C764.913086,832.820862 760.041199,834.525208 756.580017,837.737183 
	C747.168518,846.471558 736.880615,853.599182 725.119446,858.771179 
	C721.611938,860.313599 718.249329,862.605652 715.428040,865.212036 
	C705.904602,874.010376 695.433777,881.199341 683.374268,886.092651 
	C680.256348,887.357788 676.950256,888.872314 674.586365,891.157532 
	C665.016724,900.407959 654.245972,907.653564 641.941528,912.740234 
	C638.236267,914.271912 634.201538,915.851318 631.383789,918.530151 
	C622.049438,927.404846 611.412354,933.996216 599.618530,938.974731 
	C596.829041,940.152222 594.280090,941.991394 591.785278,943.758789 
	C583.344788,949.738159 575.372986,956.507080 566.455688,961.643860 
	C559.620911,965.580994 552.997986,969.344421 546.842407,974.486328 
	C539.118469,980.938477 529.961060,985.666443 521.471802,991.214294 
	C517.947083,993.517700 514.173462,995.623657 511.168396,998.503296 
	C503.245880,1006.094849 494.749664,1012.752991 484.674805,1017.242737 
	C478.774536,1019.872070 473.654633,1023.378967 468.943237,1027.997192 
	C463.800537,1033.038208 457.734589,1037.298828 451.578735,1041.102905 
	C444.315277,1045.591309 437.113770,1049.802856 431.350281,1056.429932 
	C424.142609,1064.717529 414.863007,1070.500610 405.077698,1075.495483 
	C402.419678,1076.852173 400.181244,1079.202759 398.053680,1081.391968 
	C393.112823,1086.476318 388.566559,1091.962036 383.424988,1096.824707 
	C381.312988,1098.822144 377.944305,1099.418823 375.384766,1101.029907 
	C370.469818,1104.123779 365.412933,1107.118042 360.999176,1110.845459 
	C356.860535,1114.340454 353.461853,1118.715576 349.774597,1122.737305 
	C349.103455,1123.469360 348.610107,1124.364380 348.034668,1125.184204 
	C348.938843,1125.784058 349.767517,1126.604492 350.760651,1126.944336 
	C354.603516,1128.259155 358.463165,1129.556152 362.387512,1130.590454 
	C364.874725,1131.245972 367.475647,1131.630493 370.046173,1131.778564 
	C376.900787,1132.173340 383.938416,1131.513428 390.590088,1132.841431 
	C402.399414,1135.199219 414.207703,1136.691650 426.225372,1137.370361 
	C435.738800,1137.907471 445.178284,1139.695068 454.668274,1140.771484 
	C456.061249,1140.929565 457.570190,1140.288208 458.992828,1139.897949 
	C460.381439,1139.516846 461.757904,1138.520142 463.087677,1138.605347 
	C466.805542,1138.843506 470.490967,1139.548950 474.199371,1139.983276 
	C479.886353,1140.649292 485.603668,1141.091553 491.267670,1141.909180 
	C496.912354,1142.723999 502.609772,1145.107178 508.103333,1144.646484 
	C520.890442,1143.574463 533.435730,1143.481323 545.945007,1146.684448 
	C549.242798,1147.528809 552.833923,1148.196655 556.156250,1147.805908 
	C569.575317,1146.227295 582.817383,1146.285645 595.962585,1149.867676 
	C598.168945,1150.468872 600.668457,1150.016235 603.032410,1150.012451 
	C612.888855,1149.996460 622.747070,1149.844849 632.601074,1149.988647 
	C638.090088,1150.068848 643.715149,1151.580444 649.027344,1150.779053 
	C660.010132,1149.122437 670.850952,1148.176758 681.904297,1149.879150 
	C686.990295,1150.662598 692.328064,1151.544800 697.325195,1150.820312 
	C708.629639,1149.181396 719.808044,1148.131714 731.198608,1149.884766 
	C736.444092,1150.692017 741.970459,1151.583252 747.109741,1150.778320 
	C758.094421,1149.057739 768.940063,1148.209229 779.995300,1149.869995 
	C784.128845,1150.490967 788.524414,1150.796875 792.602051,1150.094482 
	C805.070679,1147.946411 817.479553,1147.052490 830.080383,1148.819824 
	C834.211914,1149.399292 838.546204,1149.427856 842.683289,1148.895874 
	C852.723145,1147.604980 862.543640,1144.779175 872.912781,1146.832642 
	C878.373047,1147.913940 884.347168,1148.783203 889.670471,1147.696655 
	C902.239502,1145.130859 914.670776,1144.105225 927.407288,1145.846924 
	C930.721497,1146.300171 934.271362,1145.595337 937.637878,1144.998535 
	C949.598083,1142.878052 961.484375,1140.533691 973.751587,1142.849365 
	C977.503845,1143.557617 981.612732,1143.844482 985.312012,1143.100098 
	C998.465576,1140.453369 1011.561707,1138.711792 1024.996948,1140.861206 
	C1028.925171,1141.489502 1033.172607,1141.643066 1037.038330,1140.856934 
	C1048.685425,1138.488770 1060.226074,1136.990723 1072.170410,1138.800781 
	C1077.326782,1139.582275 1082.804321,1138.963257 1088.048584,1138.295166 
	C1098.445068,1136.970825 1108.669067,1135.031128 1119.328491,1136.729858 
	C1125.859619,1137.770630 1132.810669,1137.773315 1139.352661,1136.784180 
	C1149.834106,1135.199829 1160.139771,1134.392578 1170.716309,1135.820435 
	C1177.524780,1136.739502 1184.159058,1137.993774 1191.479980,1136.396729 
	C1200.207031,1134.493042 1209.753662,1134.246948 1218.601807,1135.573486 
	C1227.935791,1136.972656 1236.768311,1137.052124 1246.033203,1135.524780 
	C1253.963501,1134.217529 1262.343506,1133.532959 1269.867676,1137.921875 
	C1283.401978,1145.816650 1297.462036,1152.346680 1312.515747,1156.977417 
	C1325.138306,1160.859985 1336.908081,1160.699585 1348.803345,1153.502441 
	C1353.919067,1160.126465 1360.669800,1164.225342 1369.652710,1163.045166 
	C1378.873169,1161.833862 1384.271606,1155.915039 1387.229614,1148.275146 
	C1392.878662,1149.207153 1397.997925,1150.719116 1403.130737,1150.765747 
	C1415.444824,1150.877441 1427.004028,1153.798340 1438.726318,1157.328857 
	C1446.286621,1159.605957 1454.755737,1158.866211 1462.817505,1159.478394 
	C1462.976562,1158.809814 1463.135742,1158.141235 1463.294800,1157.472534 
	C1461.891235,1156.666748 1460.575439,1155.594482 1459.069824,1155.097778 
	C1448.593140,1151.641602 1438.992554,1146.609985 1430.158447,1139.972900 
	C1424.160889,1135.466797 1419.074585,1129.961914 1411.645264,1127.048340 
	C1403.514038,1123.859253 1395.831055,1119.193359 1388.539185,1114.297485 
	C1382.061401,1109.948120 1376.574219,1104.181152 1368.701904,1101.966064 
	C1367.291504,1101.569214 1366.119995,1099.572998 1365.266846,1098.071655 
	C1360.825928,1090.255371 1353.894531,1084.996704 1346.287354,1080.971680 
	C1342.927979,1079.194214 1338.058594,1078.981079 1334.211914,1079.748535 
	C1329.649170,1080.658691 1325.773926,1080.089111 1322.006836,1077.981079 
	C1315.606323,1074.399170 1309.355835,1070.549927 1303.021851,1066.848145 
	C1300.777954,1065.536865 1298.609375,1063.708984 1296.174561,1063.176636 
	C1283.439697,1060.391479 1271.622437,1055.556030 1261.245239,1047.674316 
	C1255.325073,1043.177856 1248.966309,1040.025635 1241.863281,1037.902588 
	C1238.724854,1036.964478 1235.744629,1034.853760 1233.201660,1032.679810 
	C1222.885254,1023.860718 1213.935181,1013.207458 1201.002930,1007.911560 
	C1194.452759,1005.229248 1187.659668,1002.842896 1180.749878,1001.430237 
	C1175.124878,1000.280212 1169.140381,1000.998840 1164.614380,996.320618 
	C1163.810547,995.489868 1162.233276,995.356750 1160.981445,995.018188 
	C1149.676636,991.960449 1139.345703,986.878784 1129.686157,980.294678 
	C1127.592285,978.867371 1125.175293,977.678162 1122.734375,977.035767 
	C1108.886475,973.391907 1095.708740,968.352905 1084.081421,959.744446 
	C1082.838745,958.824463 1081.150757,958.352417 1079.595337,958.033020 
	C1066.852905,955.416687 1054.892212,950.886475 1043.831421,943.970825 
	C1040.390381,941.819336 1036.906494,939.051086 1033.098389,938.293579 
	C1018.336670,935.356995 1005.179077,929.171753 992.976074,920.577271 
	C991.299805,919.396667 989.141418,918.823730 987.133728,918.204956 
	C981.048401,916.329346 974.927429,914.569519 968.163818,912.341064 
M535.300415,279.894409 
	C529.963013,278.244110 524.822205,278.752075 519.725647,281.013031 
	C517.641602,281.937622 515.269104,283.052856 513.135376,282.864288 
	C507.150909,282.335419 501.201538,281.289307 495.278687,280.222992 
	C490.635681,279.387115 485.799835,276.734589 481.490265,277.470245 
	C467.982239,279.776123 454.882874,278.813354 441.777710,275.466187 
	C438.497803,274.628510 435.192078,273.335236 431.882507,273.284943 
	C424.791534,273.177094 417.689911,273.736145 410.593842,274.048798 
	C410.049438,274.072754 409.514252,274.306366 408.645294,274.525726 
	C413.225372,280.597565 417.373230,286.321228 421.777191,291.840576 
	C423.996857,294.622345 426.370056,297.457703 429.209259,299.538147 
	C440.862274,308.077057 450.466431,318.375519 457.792938,330.849274 
	C460.341705,335.188690 462.563019,340.167480 466.251373,343.305939 
	C476.903900,352.370270 485.128967,363.059052 491.321899,375.500000 
	C492.548462,377.963989 494.343353,380.202393 496.150024,382.310028 
	C502.791870,390.058258 509.599152,397.664734 516.239380,405.414276 
	C519.113831,408.768951 521.488098,412.575043 524.519714,415.767548 
	C530.867004,422.451630 537.547729,428.817780 543.995239,435.408661 
	C547.271484,438.757690 550.110291,442.559387 553.546875,445.721680 
	C561.304565,452.860138 569.398315,459.632904 577.171875,466.754730 
	C580.137146,469.471436 582.113220,473.486023 585.383728,475.610168 
	C595.118469,481.932739 604.319031,488.740479 611.825562,497.697479 
	C612.824341,498.889282 614.601440,499.417145 615.991577,500.294525 
	C624.122864,505.426819 632.377319,510.378754 640.324280,515.782654 
	C645.313293,519.175171 649.597290,523.613892 654.622192,526.942200 
	C663.082825,532.546265 671.945190,537.540039 680.509766,542.992798 
	C684.639160,545.621826 688.283264,549.035278 692.483521,551.526245 
	C701.773743,557.035645 711.483887,561.857117 720.614197,567.607910 
	C725.961792,570.976196 729.848145,576.138062 736.153198,578.738525 
	C744.422607,582.149231 752.149353,587.017639 759.782837,591.782349 
	C765.787292,595.530334 769.963440,595.572388 775.108887,590.387451 
	C785.369507,580.048218 797.085754,571.998230 810.278870,565.664673 
	C815.999084,562.918579 820.478882,557.557922 825.453125,553.304138 
	C827.440613,551.604553 829.067566,549.450989 831.157532,547.909119 
	C841.864563,540.010193 855.383911,536.139526 863.858643,525.010437 
	C865.015137,523.491638 866.327148,521.850830 867.948975,520.967285 
	C876.096924,516.528320 884.383423,512.344482 892.592468,508.016266 
	C894.295898,507.118134 896.154907,506.260773 897.469849,504.921021 
	C906.598572,495.619812 917.067261,488.300690 928.923340,482.900452 
	C930.670105,482.104767 932.482544,481.000519 933.696838,479.560303 
	C943.252869,468.227051 954.934387,459.880035 968.389709,453.753815 
	C972.462952,451.899261 976.544128,449.520355 979.790344,446.490784 
	C990.353333,436.632782 1002.046997,428.787567 1015.699951,423.893097 
	C1017.626343,423.202545 1019.483704,421.889832 1020.960144,420.443604 
	C1030.507690,411.091888 1041.392334,403.882416 1053.800537,398.848724 
	C1056.742188,397.655396 1059.573120,395.699127 1061.868408,393.485626 
	C1073.054810,382.697906 1085.809692,374.632538 1100.646362,369.841797 
	C1103.390137,368.955841 1106.248047,367.701233 1108.410522,365.861267 
	C1118.020142,357.684692 1128.555176,351.246765 1140.414673,346.830658 
	C1144.011108,345.491486 1147.471436,343.322571 1150.448608,340.871124 
	C1159.647705,333.296204 1169.404907,326.769958 1180.649292,322.607422 
	C1186.132568,320.577606 1191.837769,318.888855 1196.921387,316.097046 
	C1204.680420,311.836121 1211.989624,306.755951 1219.484131,302.014557 
	C1220.356934,301.462494 1221.193359,300.853180 1222.413696,300.019775 
	C1221.462158,299.533630 1221.071045,299.173920 1220.667358,299.159180 
	C1219.679321,299.123077 1218.659424,299.121857 1217.698242,299.324280 
	C1205.282104,301.939728 1192.931030,301.579285 1180.499390,299.157990 
	C1176.411621,298.361786 1172.074585,298.736053 1167.852661,298.760162 
	C1158.181030,298.815521 1148.508911,299.127777 1138.839233,299.050232 
	C1133.690186,299.008911 1128.384521,297.388367 1123.431763,298.200806 
	C1111.228638,300.202515 1099.140747,300.778503 1086.876587,299.151520 
	C1084.048706,298.776367 1081.004028,299.421967 1078.143921,300.010223 
	C1065.548340,302.601074 1052.964722,304.365234 1040.067017,302.118591 
	C1036.486084,301.494843 1032.526855,301.309540 1029.044556,302.162201 
	C1016.016846,305.351959 1002.979187,305.896851 989.713135,304.163940 
	C985.246826,303.580536 980.573486,303.467346 976.124817,304.081482 
	C964.852844,305.637634 953.672913,307.083893 942.268555,305.123749 
	C937.231323,304.257965 931.929565,303.521637 926.926819,304.150146 
	C915.635254,305.568848 904.461304,307.110718 893.069336,305.100220 
	C888.342224,304.265991 883.357971,303.307129 878.704468,303.950653 
	C867.274597,305.531250 855.970215,307.123840 844.414368,305.099731 
	C838.633728,304.087189 832.525391,302.508362 826.921082,303.406342 
	C812.885986,305.655212 799.130432,305.725403 785.297546,302.485992 
	C782.541016,301.840454 779.549072,301.553467 776.747864,301.857819 
	C764.585388,303.179291 752.484009,304.033356 740.386230,301.214783 
	C735.149719,299.994751 729.846619,298.645111 724.516113,298.330566 
	C713.192139,297.662445 701.811646,297.929840 690.492737,297.210266 
	C685.335083,296.882385 680.305908,294.442352 675.152649,294.159790 
	C665.667053,293.639648 656.132690,293.989502 646.618835,294.020691 
	C645.148987,294.025513 642.621582,293.847870 642.380737,294.460815 
	C640.711609,298.709381 639.223328,295.629395 637.956482,294.442535 
	C634.928772,291.606171 631.661255,290.234863 627.356262,290.928497 
	C613.035889,293.235626 598.965881,291.618500 584.979736,288.094055 
	C581.790649,287.290436 578.258667,287.846802 574.884460,287.778534 
	C567.608032,287.631348 560.170715,288.362701 553.104980,287.066956 
	C547.206909,285.985321 541.744263,282.529480 535.300415,279.894409 
z"/>
<path fill="#000000" opacity="1.000000" stroke="none" 
	d="
M968.492065,912.552856 
	C974.927429,914.569519 981.048401,916.329346 987.133728,918.204956 
	C989.141418,918.823730 991.299805,919.396667 992.976074,920.577271 
	C1005.179077,929.171753 1018.336670,935.356995 1033.098389,938.293579 
	C1036.906494,939.051086 1040.390381,941.819336 1043.831421,943.970825 
	C1054.892212,950.886475 1066.852905,955.416687 1079.595337,958.033020 
	C1081.150757,958.352417 1082.838745,958.824463 1084.081421,959.744446 
	C1095.708740,968.352905 1108.886475,973.391907 1122.734375,977.035767 
	C1125.175293,977.678162 1127.592285,978.867371 1129.686157,980.294678 
	C1139.345703,986.878784 1149.676636,991.960449 1160.981445,995.018188 
	C1162.233276,995.356750 1163.810547,995.489868 1164.614380,996.320618 
	C1169.140381,1000.998840 1175.124878,1000.280212 1180.749878,1001.430237 
	C1187.659668,1002.842896 1194.452759,1005.229248 1201.002930,1007.911560 
	C1213.935181,1013.207458 1222.885254,1023.860718 1233.201660,1032.679810 
	C1235.744629,1034.853760 1238.724854,1036.964478 1241.863281,1037.902588 
	C1248.966309,1040.025635 1255.325073,1043.177856 1261.245239,1047.674316 
	C1271.622437,1055.556030 1283.439697,1060.391479 1296.174561,1063.176636 
	C1298.609375,1063.708984 1300.777954,1065.536865 1303.021851,1066.848145 
	C1309.355835,1070.549927 1315.606323,1074.399170 1322.006836,1077.981079 
	C1325.773926,1080.089111 1329.649170,1080.658691 1334.211914,1079.748535 
	C1338.058594,1078.981079 1342.927979,1079.194214 1346.287354,1080.971680 
	C1353.894531,1084.996704 1360.825928,1090.255371 1365.266846,1098.071655 
	C1366.119995,1099.572998 1367.291504,1101.569214 1368.701904,1101.966064 
	C1376.574219,1104.181152 1382.061401,1109.948120 1388.539185,1114.297485 
	C1395.831055,1119.193359 1403.514038,1123.859253 1411.645264,1127.048340 
	C1419.074585,1129.961914 1424.160889,1135.466797 1430.158447,1139.972900 
	C1438.992554,1146.609985 1448.593140,1151.641602 1459.069824,1155.097778 
	C1460.575439,1155.594482 1461.891235,1156.666748 1463.294800,1157.472534 
	C1463.135742,1158.141235 1462.976562,1158.809814 1462.817505,1159.478394 
	C1454.755737,1158.866211 1446.286621,1159.605957 1438.726318,1157.328857 
	C1427.004028,1153.798340 1415.444824,1150.877441 1403.130737,1150.765747 
	C1397.997925,1150.719116 1392.878662,1149.207153 1387.229614,1148.275146 
	C1384.271606,1155.915039 1378.873169,1161.833862 1369.652710,1163.045166 
	C1360.669800,1164.225342 1353.919067,1160.126465 1348.803345,1153.502441 
	C1336.908081,1160.699585 1325.138306,1160.859985 1312.515747,1156.977417 
	C1297.462036,1152.346680 1283.401978,1145.816650 1269.867676,1137.921875 
	C1262.343506,1133.532959 1253.963501,1134.217529 1246.033203,1135.524780 
	C1236.768311,1137.052124 1227.935791,1136.972656 1218.601807,1135.573486 
	C1209.753662,1134.246948 1200.207031,1134.493042 1191.479980,1136.396729 
	C1184.159058,1137.993774 1177.524780,1136.739502 1170.716309,1135.820435 
	C1160.139771,1134.392578 1149.834106,1135.199829 1139.352661,1136.784180 
	C1132.810669,1137.773315 1125.859619,1137.770630 1119.328491,1136.729858 
	C1108.669067,1135.031128 1098.445068,1136.970825 1088.048584,1138.295166 
	C1082.804321,1138.963257 1077.326782,1139.582275 1072.170410,1138.800781 
	C1060.226074,1136.990723 1048.685425,1138.488770 1037.038330,1140.856934 
	C1033.172607,1141.643066 1028.925171,1141.489502 1024.996948,1140.861206 
	C1011.561707,1138.711792 998.465576,1140.453369 985.312012,1143.100098 
	C981.612732,1143.844482 977.503845,1143.557617 973.751587,1142.849365 
	C961.484375,1140.533691 949.598083,1142.878052 937.637878,1144.998535 
	C934.271362,1145.595337 930.721497,1146.300171 927.407288,1145.846924 
	C914.670776,1144.105225 902.239502,1145.130859 889.670471,1147.696655 
	C884.347168,1148.783203 878.373047,1147.913940 872.912781,1146.832642 
	C862.543640,1144.779175 852.723145,1147.604980 842.683289,1148.895874 
	C838.546204,1149.427856 834.211914,1149.399292 830.080383,1148.819824 
	C817.479553,1147.052490 805.070679,1147.946411 792.602051,1150.094482 
	C788.524414,1150.796875 784.128845,1150.490967 779.995300,1149.869995 
	C768.940063,1148.209229 758.094421,1149.057739 747.109741,1150.778320 
	C741.970459,1151.583252 736.444092,1150.692017 731.198608,1149.884766 
	C719.808044,1148.131714 708.629639,1149.181396 697.325195,1150.820312 
	C692.328064,1151.544800 686.990295,1150.662598 681.904297,1149.879150 
	C670.850952,1148.176758 660.010132,1149.122437 649.027344,1150.779053 
	C643.715149,1151.580444 638.090088,1150.068848 632.601074,1149.988647 
	C622.747070,1149.844849 612.888855,1149.996460 603.032410,1150.012451 
	C600.668457,1150.016235 598.168945,1150.468872 595.962585,1149.867676 
	C582.817383,1146.285645 569.575317,1146.227295 556.156250,1147.805908 
	C552.833923,1148.196655 549.242798,1147.528809 545.945007,1146.684448 
	C533.435730,1143.481323 520.890442,1143.574463 508.103333,1144.646484 
	C502.609772,1145.107178 496.912354,1142.723999 491.267670,1141.909180 
	C485.603668,1141.091553 479.886353,1140.649292 474.199371,1139.983276 
	C470.490967,1139.548950 466.805542,1138.843506 463.087677,1138.605347 
	C461.757904,1138.520142 460.381439,1139.516846 458.992828,1139.897949 
	C457.570190,1140.288208 456.061249,1140.929565 454.668274,1140.771484 
	C445.178284,1139.695068 435.738800,1137.907471 426.225372,1137.370361 
	C414.207703,1136.691650 402.399414,1135.199219 390.590088,1132.841431 
	C383.938416,1131.513428 376.900787,1132.173340 370.046173,1131.778564 
	C367.475647,1131.630493 364.874725,1131.245972 362.387512,1130.590454 
	C358.463165,1129.556152 354.603516,1128.259155 350.760651,1126.944336 
	C349.767517,1126.604492 348.938843,1125.784058 348.034668,1125.184204 
	C348.610107,1124.364380 349.103455,1123.469360 349.774597,1122.737305 
	C353.461853,1118.715576 356.860535,1114.340454 360.999176,1110.845459 
	C365.412933,1107.118042 370.469818,1104.123779 375.384766,1101.029907 
	C377.944305,1099.418823 381.312988,1098.822144 383.424988,1096.824707 
	C388.566559,1091.962036 393.112823,1086.476318 398.053680,1081.391968 
	C400.181244,1079.202759 402.419678,1076.852173 405.077698,1075.495483 
	C414.863007,1070.500610 424.142609,1064.717529 431.350281,1056.429932 
	C437.113770,1049.802856 444.315277,1045.591309 451.578735,1041.102905 
	C457.734589,1037.298828 463.800537,1033.038208 468.943237,1027.997192 
	C473.654633,1023.378967 478.774536,1019.872070 484.674805,1017.242737 
	C494.749664,1012.752991 503.245880,1006.094849 511.168396,998.503296 
	C514.173462,995.623657 517.947083,993.517700 521.471802,991.214294 
	C529.961060,985.666443 539.118469,980.938477 546.842407,974.486328 
	C552.997986,969.344421 559.620911,965.580994 566.455688,961.643860 
	C575.372986,956.507080 583.344788,949.738159 591.785278,943.758789 
	C594.280090,941.991394 596.829041,940.152222 599.618530,938.974731 
	C611.412354,933.996216 622.049438,927.404846 631.383789,918.530151 
	C634.201538,915.851318 638.236267,914.271912 641.941528,912.740234 
	C654.245972,907.653564 665.016724,900.407959 674.586365,891.157532 
	C676.950256,888.872314 680.256348,887.357788 683.374268,886.092651 
	C695.433777,881.199341 705.904602,874.010376 715.428040,865.212036 
	C718.249329,862.605652 721.611938,860.313599 725.119446,858.771179 
	C736.880615,853.599182 747.168518,846.471558 756.580017,837.737183 
	C760.041199,834.525208 764.913086,832.820862 769.171814,830.484192 
	C773.736755,827.979431 778.260559,823.769836 782.943848,823.566711 
	C787.674683,823.361572 792.436523,827.652771 797.439209,829.085632 
	C805.774231,831.472778 812.543762,836.338074 819.764954,840.799805 
	C827.867004,845.805603 837.111877,848.930420 845.711304,853.173950 
	C851.073486,855.819946 856.428711,858.638733 861.318420,862.051453 
	C872.330261,869.737061 884.494995,874.537659 897.322388,878.105347 
	C900.501770,878.989624 903.478516,880.988586 906.241638,882.915100 
	C916.976929,890.400024 928.705566,895.375122 941.485352,898.222778 
	C945.003906,899.006775 948.197266,901.356873 951.468140,903.121277 
	C957.063110,906.139343 962.601624,909.262207 968.492065,912.552856 
z"/>
<path fill="#000000" opacity="1.000000" stroke="none" 
	d="
M535.694580,280.009735 
	C541.744263,282.529480 547.206909,285.985321 553.104980,287.066956 
	C560.170715,288.362701 567.608032,287.631348 574.884460,287.778534 
	C578.258667,287.846802 581.790649,287.290436 584.979736,288.094055 
	C598.965881,291.618500 613.035889,293.235626 627.356262,290.928497 
	C631.661255,290.234863 634.928772,291.606171 637.956482,294.442535 
	C639.223328,295.629395 640.711609,298.709381 642.380737,294.460815 
	C642.621582,293.847870 645.148987,294.025513 646.618835,294.020691 
	C656.132690,293.989502 665.667053,293.639648 675.152649,294.159790 
	C680.305908,294.442352 685.335083,296.882385 690.492737,297.210266 
	C701.811646,297.929840 713.192139,297.662445 724.516113,298.330566 
	C729.846619,298.645111 735.149719,299.994751 740.386230,301.214783 
	C752.484009,304.033356 764.585388,303.179291 776.747864,301.857819 
	C779.549072,301.553467 782.541016,301.840454 785.297546,302.485992 
	C799.130432,305.725403 812.885986,305.655212 826.921082,303.406342 
	C832.525391,302.508362 838.633728,304.087189 844.414368,305.099731 
	C855.970215,307.123840 867.274597,305.531250 878.704468,303.950653 
	C883.357971,303.307129 888.342224,304.265991 893.069336,305.100220 
	C904.461304,307.110718 915.635254,305.568848 926.926819,304.150146 
	C931.929565,303.521637 937.231323,304.257965 942.268555,305.123749 
	C953.672913,307.083893 964.852844,305.637634 976.124817,304.081482 
	C980.573486,303.467346 985.246826,303.580536 989.713135,304.163940 
	C1002.979187,305.896851 1016.016846,305.351959 1029.044556,302.162201 
	C1032.526855,301.309540 1036.486084,301.494843 1040.067017,302.118591 
	C1052.964722,304.365234 1065.548340,302.601074 1078.143921,300.010223 
	C1081.004028,299.421967 1084.048706,298.776367 1086.876587,299.151520 
	C1099.140747,300.778503 1111.228638,300.202515 1123.431763,298.200806 
	C1128.384521,297.388367 1133.690186,299.008911 1138.839233,299.050232 
	C1148.508911,299.127777 1158.181030,298.815521 1167.852661,298.760162 
	C1172.074585,298.736053 1176.411621,298.361786 1180.499390,299.157990 
	C1192.931030,301.579285 1205.282104,301.939728 1217.698242,299.324280 
	C1218.659424,299.121857 1219.679321,299.123077 1220.667358,299.159180 
	C1221.071045,299.173920 1221.462158,299.533630 1222.413696,300.019775 
	C1221.193359,300.853180 1220.356934,301.462494 1219.484131,302.014557 
	C1211.989624,306.755951 1204.680420,311.836121 1196.921387,316.097046 
	C1191.837769,318.888855 1186.132568,320.577606 1180.649292,322.607422 
	C1169.404907,326.769958 1159.647705,333.296204 1150.448608,340.871124 
	C1147.471436,343.322571 1144.011108,345.491486 1140.414673,346.830658 
	C1128.555176,351.246765 1118.020142,357.684692 1108.410522,365.861267 
	C1106.248047,367.701233 1103.390137,368.955841 1100.646362,369.841797 
	C1085.809692,374.632538 1073.054810,382.697906 1061.868408,393.485626 
	C1059.573120,395.699127 1056.742188,397.655396 1053.800537,398.848724 
	C1041.392334,403.882416 1030.507690,411.091888 1020.960144,420.443604 
	C1019.483704,421.889832 1017.626343,423.202545 1015.699951,423.893097 
	C1002.046997,428.787567 990.353333,436.632782 979.790344,446.490784 
	C976.544128,449.520355 972.462952,451.899261 968.389709,453.753815 
	C954.934387,459.880035 943.252869,468.227051 933.696838,479.560303 
	C932.482544,481.000519 930.670105,482.104767 928.923340,482.900452 
	C917.067261,488.300690 906.598572,495.619812 897.469849,504.921021 
	C896.154907,506.260773 894.295898,507.118134 892.592468,508.016266 
	C884.383423,512.344482 876.096924,516.528320 867.948975,520.967285 
	C866.327148,521.850830 865.015137,523.491638 863.858643,525.010437 
	C855.383911,536.139526 841.864563,540.010193 831.157532,547.909119 
	C829.067566,549.450989 827.440613,551.604553 825.453125,553.304138 
	C820.478882,557.557922 815.999084,562.918579 810.278870,565.664673 
	C797.085754,571.998230 785.369507,580.048218 775.108887,590.387451 
	C769.963440,595.572388 765.787292,595.530334 759.782837,591.782349 
	C752.149353,587.017639 744.422607,582.149231 736.153198,578.738525 
	C729.848145,576.138062 725.961792,570.976196 720.614197,567.607910 
	C711.483887,561.857117 701.773743,557.035645 692.483521,551.526245 
	C688.283264,549.035278 684.639160,545.621826 680.509766,542.992798 
	C671.945190,537.540039 663.082825,532.546265 654.622192,526.942200 
	C649.597290,523.613892 645.313293,519.175171 640.324280,515.782654 
	C632.377319,510.378754 624.122864,505.426819 615.991577,500.294525 
	C614.601440,499.417145 612.824341,498.889282 611.825562,497.697479 
	C604.319031,488.740479 595.118469,481.932739 585.383728,475.610168 
	C582.113220,473.486023 580.137146,469.471436 577.171875,466.754730 
	C569.398315,459.632904 561.304565,452.860138 553.546875,445.721680 
	C550.110291,442.559387 547.271484,438.757690 543.995239,435.408661 
	C537.547729,428.817780 530.867004,422.451630 524.519714,415.767548 
	C521.488098,412.575043 519.113831,408.768951 516.239380,405.414276 
	C509.599152,397.664734 502.791870,390.058258 496.150024,382.310028 
	C494.343353,380.202393 492.548462,377.963989 491.321899,375.500000 
	C485.128967,363.059052 476.903900,352.370270 466.251373,343.305939 
	C462.563019,340.167480 460.341705,335.188690 457.792938,330.849274 
	C450.466431,318.375519 440.862274,308.077057 429.209259,299.538147 
	C426.370056,297.457703 423.996857,294.622345 421.777191,291.840576 
	C417.373230,286.321228 413.225372,280.597565 408.645294,274.525726 
	C409.514252,274.306366 410.049438,274.072754 410.593842,274.048798 
	C417.689911,273.736145 424.791534,273.177094 431.882507,273.284943 
	C435.192078,273.335236 438.497803,274.628510 441.777710,275.466187 
	C454.882874,278.813354 467.982239,279.776123 481.490265,277.470245 
	C485.799835,276.734589 490.635681,279.387115 495.278687,280.222992 
	C501.201538,281.289307 507.150909,282.335419 513.135376,282.864288 
	C515.269104,283.052856 517.641602,281.937622 519.725647,281.013031 
	C524.822205,278.752075 529.963013,278.244110 535.694580,280.009735 
M643.915955,297.567505 
	C643.393677,297.309387 642.871338,297.051300 642.349060,296.793182 
	C642.728577,297.314270 643.108032,297.835358 643.915955,297.567505 
M645.183716,298.491791 
	C645.183716,298.491791 645.328735,298.423218 645.183716,298.491791 
z"/>
<path fill="#FFFFFF" opacity="1.000000" stroke="none" 
	d="
M643.701721,297.961975 
	C643.108032,297.835358 642.728577,297.314270 642.349060,296.793182 
	C642.871338,297.051300 643.393677,297.309387 643.701721,297.961975 
z"/>
<path fill="#FFFFFF" opacity="1.000000" stroke="none" 
	d="
M645.256226,298.457520 
	C645.328735,298.423218 645.183716,298.491791 645.256226,298.457520 
z"/>
</svg>